<svg width="40" height="40" viewBox="0 0 40 40" fill="none" xmlns="http://www.w3.org/2000/svg">
<path d="M20 5.50021C21.9698 5.50021 23.9204 5.88431 25.7402 6.63107C27.5601 7.37785 29.2136 8.47287 30.6064 9.85275C31.9992 11.2325 33.1046 12.8703 33.8584 14.6731C34.6122 16.476 35 18.4091 35 20.3606C34.9998 26.9285 30.7098 32.4856 24.7549 34.4768C23.9902 34.6104 23.7502 34.1357 23.75 33.7346V29.6623C23.7499 28.2805 23.2548 27.3739 22.7148 26.9133C26.0598 26.5418 29.5702 25.2937 29.5703 19.6174C29.5703 17.968 29.0003 16.6451 28.0254 15.59C28.1755 15.2182 28.6998 13.6729 27.875 11.6672C27.875 11.6672 26.615 11.2659 23.75 13.1828C22.565 12.8559 21.275 12.6926 20 12.6926C18.725 12.6926 17.435 12.8559 16.25 13.1828C13.385 11.2659 12.125 11.6672 12.125 11.6672C11.3002 13.6729 11.8245 15.2182 11.9746 15.59C10.9997 16.6451 10.4297 17.968 10.4297 19.6174C10.4298 25.2788 13.925 26.5564 17.2549 26.9279C16.8349 27.2994 16.4446 27.9534 16.3096 28.9192C15.4544 29.2758 13.2502 29.9443 11.9453 27.6858C11.9349 27.6671 11.1402 26.259 9.65039 26.1555C9.65039 26.1555 8.1801 26.1258 9.54492 27.0471C9.54492 27.0471 10.52 27.5079 11.21 29.2317C11.213 29.2416 12.1022 32.1129 16.25 31.2229V33.7346C16.2498 34.1357 16.0095 34.5956 15.2598 34.4768C9.30505 32.5003 5.00016 26.9284 5 20.3606C5 16.4194 6.58051 12.6395 9.39355 9.85275C10.7864 8.47287 12.4399 7.37785 14.2598 6.63107C16.0796 5.88431 18.0302 5.50021 20 5.50021Z" fill="white"/>
</svg>
