<svg width="40" height="40" viewBox="0 0 40 40" fill="none" xmlns="http://www.w3.org/2000/svg">
<path d="M20 5C23.9773 5 27.7953 6.58152 30.6055 9.39355C33.4179 12.2056 35 16.0234 35 20C35 23.9766 33.4179 27.7944 30.6055 30.6064C27.7953 33.4185 23.9773 35 20 35C16.0227 35 12.2047 33.4185 9.39453 30.6064C6.58209 27.7944 5 23.9766 5 20C5.0008 16.0217 6.58156 12.2067 9.39453 9.39355C12.2047 6.58152 16.0227 5 20 5ZM25.4639 14C24.899 14.0102 24.0334 14.3112 19.8662 16.0439C18.4083 16.6508 15.493 17.9068 11.1201 19.8115C10.41 20.0939 10.0367 20.3706 10.0039 20.6406C9.93833 21.1593 10.6866 21.3206 11.624 21.626C12.3904 21.8749 13.4218 22.1663 13.9561 22.1777C14.4434 22.1882 14.9846 21.988 15.582 21.5771C19.6686 18.8199 21.7757 17.4251 21.9102 17.3945C22.0038 17.3735 22.133 17.347 22.2197 17.4248C22.3088 17.5026 22.2994 17.6508 22.29 17.6904C22.2163 18.0079 18.3788 21.4978 18.1582 21.7275C17.3145 22.6041 16.3537 23.1403 17.835 24.1162C19.1169 24.9606 19.8622 25.4997 21.1816 26.3652C22.0251 26.918 22.686 27.5731 23.5576 27.4932C23.9584 27.4564 24.3734 27.0798 24.582 25.9561C25.0789 23.2996 26.0562 17.544 26.2812 15.1719C26.3023 14.9642 26.2766 14.6978 26.2578 14.5811C26.2367 14.4643 26.1948 14.2978 26.0449 14.1748C25.8647 14.0291 25.5883 13.9981 25.4639 14Z" fill="white"/>
</svg>
